<svg id="Layer_1" xmlns="http://www.w3.org/2000/svg" version="1.1" viewBox="0 0 524 524">
  <defs>
    <style>
      .st0 {
        fill: #fff;
      }
    </style>
  </defs>
  <path class="st0" d="M222,472h-96c-40.8,0-74-33.2-74-74V126c0-40.8,33.2-74,74-74h83c21.4,0,41.7,8.9,55.7,24.4,4.7,5.2,11,8.2,18,8.5,6.9.4,13.6-2,18.7-6.7s8.2-11,8.5-18c.4-6.9-2-13.6-6.7-18.7C279.4,15.2,245.1,0,209,0h-83C56.5,0,0,56.5,0,126v272c0,69.5,56.5,126,126,126h96c14.3,0,26-11.7,26-26s-11.7-26-26-26Z"/>
  <path class="st0" d="M302,341c-14.3,0-26,11.7-26,26v131c0,14.3,11.7,26,26,26s26-11.7,26-26v-131c0-14.3-11.7-26-26-26Z"/>
  <path class="st0" d="M418,102h-230c-58.4,0-106,47.6-106,106v201c0,14.3,11.7,26,26,26s26-11.7,26-26v-201c0-29.8,24.2-54,54-54h230c29.8,0,54,24.2,54,54v190c0,40.8-33.2,74-74,74h-16c-14.3,0-26,11.7-26,26s11.7,26,26,26h16c69.5,0,126-56.5,126-126v-190c0-58.4-47.6-106-106-106Z"/>
  <path class="st0" d="M387.2,346.5c4.9-4.9,7.7-11.4,7.8-18.3,0-6.9-2.6-13.5-7.5-18.4l-37.3-37.9-.2-.2c-26.2-26.2-68.8-26.2-95.1,0l-37.4,38c-4.9,4.9-7.5,11.5-7.5,18.4,0,6.9,2.8,13.5,7.8,18.3,10.2,10.1,26.7,9.9,36.8-.3l37.2-37.8c5.9-5.9,15.5-5.9,21.3,0l37.3,37.9c4.9,5,11.5,7.8,18.5,7.8s13.3-2.7,18.2-7.5Z"/>
</svg>