<svg id="Layer_1" xmlns="http://www.w3.org/2000/svg" version="1.1" viewBox="0 0 524 524">
  <defs>
    <style>
      .st0 {
        fill: #fff;
      }
    </style>
  </defs>
  <path class="st0" d="M443.9,255.5c0-.8-.2-1.7-.4-2.6h0c-.2-.8-.4-1.7-.6-2.5-.3-.8-.5-1.6-.9-2.4-.3-.8-.7-1.6-1.1-2.3-.4-.7-.8-1.5-1.3-2.2-.5-.7-1-1.4-1.5-2.1-.5-.6-1.1-1.3-1.8-1.9-.6-.6-1.3-1.2-1.9-1.7-.7-.6-1.4-1.1-2.1-1.5-.7-.5-1.5-.9-2.1-1.3-.7-.4-1.5-.8-2.3-1.1-.8-.3-1.6-.6-2.4-.9-.8-.2-1.6-.4-2.4-.6-.9-.2-1.7-.3-2.5-.4-1.7-.2-3.4-.2-5.1,0-.9,0-1.7.2-2.6.4-.8.2-1.6.4-2.4.6-.8.3-1.6.5-2.4.9-.8.3-1.6.7-2.3,1.1-.8.4-1.5.8-2.2,1.3-.7.4-1.4,1-2.1,1.5-.6.5-1.3,1.1-1.9,1.8-.6.6-1.2,1.3-1.7,1.9-.6.7-1.1,1.4-1.5,2.1-.5.7-.9,1.5-1.3,2.1-.4.7-.8,1.5-1.1,2.3-.3.8-.6,1.6-.9,2.4-.2.8-.4,1.6-.6,2.4-.2.7-.3,1.5-.4,2.5,0,.8-.1,1.7-.1,2.6s0,1.8.1,2.6c.1.9.2,1.7.4,2.5.2.8.4,1.6.6,2.5.3.8.5,1.6.9,2.4.3.8.7,1.6,1.1,2.3.4.7.8,1.4,1.3,2.2.5.7,1,1.4,1.5,2,.5.6,1.1,1.3,1.8,1.9.6.6,1.3,1.2,1.9,1.7.7.6,1.4,1.1,2.1,1.5.7.5,1.5.9,2.1,1.3.7.4,1.5.8,2.3,1.1.8.3,1.6.6,2.4.9.8.2,1.6.4,2.4.6.9.2,1.7.3,2.5.4.8,0,1.7.1,2.6.1s1.8,0,2.5-.1c.8,0,1.7-.2,2.6-.4.8-.2,1.6-.4,2.4-.6.8-.3,1.6-.5,2.4-.9.8-.3,1.6-.7,2.3-1.1.8-.4,1.5-.8,2.2-1.3.7-.5,1.4-1,2.1-1.6.6-.5,1.3-1.1,1.9-1.7.7-.7,1.2-1.3,1.7-1.9.6-.7,1.1-1.4,1.5-2.1.5-.8.9-1.5,1.3-2.2.4-.7.7-1.5,1.1-2.3.3-.8.6-1.6.9-2.4.2-.8.4-1.6.6-2.4.2-.9.3-1.7.4-2.5,0-.8.1-1.7.1-2.6s0-1.8-.1-2.5Z"/>
  <path class="st0" d="M363.5,252.9h0c-.2-.8-.4-1.7-.6-2.5-.3-.8-.5-1.6-.9-2.4-.3-.8-.7-1.6-1.1-2.3-.4-.7-.8-1.5-1.3-2.2-.5-.7-1-1.4-1.5-2.1-.5-.6-1.1-1.3-1.8-1.9-.6-.6-1.3-1.2-1.9-1.7-.7-.6-1.4-1.1-2.1-1.5-.8-.5-1.5-.9-2.2-1.3-.7-.4-1.5-.7-2.3-1.1-.8-.3-1.6-.6-2.4-.9-.8-.2-1.6-.5-2.4-.6-.9-.2-1.7-.3-2.5-.4-1.7-.2-3.4-.2-5.1,0-.9,0-1.7.2-2.6.4-.8.2-1.6.4-2.4.6-.8.3-1.6.5-2.4.9-.8.3-1.6.7-2.3,1.1-.8.4-1.5.8-2.2,1.3-.7.4-1.4,1-2.1,1.5-.6.5-1.3,1.1-1.9,1.8-.6.6-1.2,1.3-1.7,1.9-.6.7-1.1,1.4-1.5,2.1-.4.6-.8,1.3-1.3,2.1-.4.7-.8,1.5-1.1,2.3-.3.8-.6,1.6-.9,2.4-.2.8-.4,1.6-.6,2.4-.2.7-.3,1.5-.4,2.5,0,.8-.1,1.7-.1,2.6s0,1.8.1,2.6c.1.9.2,1.7.4,2.5.2.8.4,1.6.6,2.5.3.8.5,1.6.9,2.4.3.8.7,1.6,1.1,2.3.4.8.8,1.5,1.3,2.1.5.7,1,1.4,1.5,2,.5.6,1.1,1.3,1.8,1.9.6.6,1.3,1.2,1.9,1.7.7.6,1.4,1.1,2.1,1.5.7.5,1.5.9,2.1,1.3.7.4,1.5.8,2.3,1.1.8.3,1.6.6,2.4.9.8.2,1.6.4,2.4.6.9.2,1.7.3,2.5.4.8,0,1.7.1,2.6.1s1.8,0,2.5-.1c.8,0,1.7-.2,2.6-.4.8-.2,1.6-.4,2.5-.6.8-.3,1.6-.5,2.4-.9.8-.3,1.6-.7,2.3-1.1.7-.4,1.4-.8,2.1-1.3.7-.5,1.4-1,2.1-1.6.6-.5,1.3-1.1,1.9-1.7.7-.7,1.2-1.3,1.7-1.9.6-.7,1.1-1.4,1.5-2.1.5-.8.9-1.5,1.3-2.2.4-.7.7-1.5,1.1-2.3.3-.8.6-1.6.9-2.4.2-.8.4-1.6.6-2.4.2-.9.3-1.7.4-2.5,0-.8.1-1.7.1-2.6s0-1.8-.1-2.5c0-.8-.2-1.7-.4-2.6Z"/>
  <path class="st0" d="M418,152H106C47.6,152,0,199.6,0,258v80c0,58.4,47.6,106,106,106h14v14c0,36.4,29.6,66,66,66h152c36.4,0,66-29.6,66-66v-14h14c58.4,0,106-47.6,106-106v-80c0-58.4-47.6-106-106-106ZM338,472h-152c-7.7,0-14-6.3-14-14v-94h180v94c0,7.7-6.3,14-14,14ZM404,364h14c14.3,0,26-11.7,26-26s-11.7-26-26-26H106c-14.3,0-26,11.7-26,26s11.7,26,26,26h14v28h-14c-29.8,0-54-24.2-54-54v-80c0-29.8,24.2-54,54-54h312c29.8,0,54,24.2,54,54v80c0,29.8-24.2,54-54,54h-14v-28Z"/>
  <path class="st0" d="M142,124c14.3,0,26-11.7,26-26v-32c0-7.7,6.3-14,14-14h160c7.7,0,14,6.3,14,14v32c0,14.3,11.7,26,26,26s26-11.7,26-26v-32c0-36.4-29.6-66-66-66h-160c-36.4,0-66,29.6-66,66v32c0,14.3,11.7,26,26,26Z"/>
</svg>